<svg xmlns="http://www.w3.org/2000/svg" viewBox="0 0 328.45 341.52"><defs><style>.cls-1{fill:#231f20;}.cls-2{fill:none;stroke:#231f20;stroke-miterlimit:10;stroke-width:5px;}</style></defs><g id="Layer_3" data-name="Layer 3"><path class="cls-1" d="M236.9,423.79q9.32-23.79,17-48.14t13.72-49.08q6-24.7,10.39-49.79t7-50.51q2.67-25.25,3.62-50.64.12-3.21.21-6.43c.09-3.22-4.91-3.21-5,0q-.74,25.26-3.15,50.43t-6.58,50.17q-4.14,25-9.95,49.63T251,368.37q-7.5,24.4-16.63,48.27-1.11,2.91-2.25,5.82a2.51,2.51,0,0,0,1.74,3.07,2.56,2.56,0,0,0,3.08-1.74Z" transform="translate(-131.02 -113.64)"/><path class="cls-1" d="M284,169.87q4.44,25,10.6,49.69t14,48.84q7.81,24.08,17.27,47.55,9.53,23.67,20.64,46.65t23.72,44.94q1.58,2.74,3.17,5.47c1.62,2.78,5.95.26,4.32-2.52Q365,388.65,353.72,366t-20.81-45.89q-9.63-23.4-17.64-47.42t-14.35-48.51q-6.33-24.48-11-49.38c-.39-2.07-.76-4.15-1.13-6.22a2.5,2.5,0,1,0-4.82,1.33Z" transform="translate(-131.02 -113.64)"/><path class="cls-1" d="M191.41,304c13.86.8,27.72-.27,41.49-1.77s27.44-3.21,41.2-4.47q41.28-3.79,82.78-4.27,23.46-.28,46.93.51c3.21.11,3.21-4.89,0-5q-41.47-1.38-83,.53c-27.61,1.28-55.06,3.94-82.51,7.09-15.57,1.79-31.23,3.28-46.91,2.38-3.21-.18-3.2,4.82,0,5Z" transform="translate(-131.02 -113.64)"/><path class="cls-1" d="M399.64,174.27c-1.45,12-1.42,24-1.06,36.09.37,12.24.89,24.47,1.35,36.7l2.76,73.78,1.55,41.38c.12,3.2,5.12,3.22,5,0l-2.76-73.78c-.92-24.56-1.89-49.12-2.76-73.68-.47-13.49-.71-27,.92-40.49a2.51,2.51,0,0,0-2.5-2.5,2.57,2.57,0,0,0-2.5,2.5Z" transform="translate(-131.02 -113.64)"/><path class="cls-1" d="M179.27,183.2l5.59,75.28,5.59,75.28,3.14,42.37a2.56,2.56,0,0,0,2.5,2.5,2.51,2.51,0,0,0,2.5-2.5L193,300.85l-5.59-75.28-3.15-42.37a2.55,2.55,0,0,0-2.5-2.5,2.52,2.52,0,0,0-2.5,2.5Z" transform="translate(-131.02 -113.64)"/></g><g id="Layer_2" data-name="Layer 2"><ellipse class="cls-2" cx="164.23" cy="170.76" rx="161.73" ry="168.26"/></g></svg>